<svg width="560" height="66" viewBox="0 0 560 66" fill="none" xmlns="http://www.w3.org/2000/svg">
<path d="M484.864 65.8249L509.255 0.14978H517.049L492.572 65.8249H484.864Z" fill="black"/>
<path d="M524.114 59.2635L549.121 33.8282V33.1425L524.114 7.79291H534.822L560 33.3997L534.822 59.2635H524.114Z" fill="black"/>
<path d="M35.7268 8.65686L10.8311 33.8785L10.8311 34.5584L35.7268 59.6951L25.0665 59.6951L5.94403e-05 34.3034L25.0665 8.65686L35.7268 8.65686Z" fill="black"/>
<path d="M466.665 54.5285V60.2418H462.8C457.423 60.2418 452.465 57.3011 452.465 49.2352V22.769H444.568V17.2238H452.465V6.04913H458.767V17.2238H466.665V22.769H458.767V48.3951C458.767 53.2682 460.699 54.5285 463.304 54.5285H466.665Z" fill="black"/>
<path d="M418.562 22.7694V17.2241H425.367V11.0066C425.367 2.94075 430.913 6.10352e-05 436.794 6.10352e-05H440.659V5.54536H437.298C434.022 5.54536 431.669 6.72163 431.669 11.5108V17.2241H440.659V22.7694H431.669V60.2422H425.367V22.7694H418.562Z" fill="black"/>
<path d="M413.897 31.6757V60.2424H407.511V52.5966C404.319 57.8058 398.773 61.1666 392.22 61.1666C383.902 61.1666 378.021 55.8734 378.021 48.3116C378.021 41.338 382.558 37.053 390.371 36.5489L402.47 35.6246C406.167 35.4566 407.511 34.1963 407.511 31.3396V31.1716C407.511 25.7943 402.806 21.6774 396.673 21.6774C389.531 21.6774 385.666 24.7021 384.994 30.8355H378.357C378.945 22.0134 386.086 16.3001 396.589 16.3001C406.587 16.3001 413.897 22.8536 413.897 31.6757ZM384.49 48.1436C384.49 52.6806 388.187 55.6213 394.068 55.6213C401.798 55.6213 407.511 49.7399 407.511 41.8421V40.4978L392.556 41.506C387.179 41.9261 384.49 44.1106 384.49 48.1436Z" fill="black"/>
<path d="M353.693 17.2247H360.079V23.6942C362.936 18.9891 367.641 16.3845 372.178 16.3845H374.11V23.022H372.262C365.372 23.022 360.079 27.6431 360.079 34.1966V60.2427H353.693V17.2247Z" fill="black"/>
<path d="M299.207 32.0964C299.207 14.8724 308.869 3.44568 323.488 3.44568C336.679 3.44568 346.258 11.0915 347.182 23.0223H340.628C340.208 14.6203 333.571 9.41108 323.572 9.41108C312.314 9.41108 305.76 17.729 305.76 32.0964C305.76 46.5478 312.314 54.8657 323.572 54.8657C333.487 54.8657 340.04 49.6565 340.628 41.2545H347.182C346.09 53.4374 336.595 60.9151 323.488 60.9151C308.953 60.9151 299.207 49.4044 299.207 32.0964Z" fill="black"/>
<path d="M292.692 6.10352e-05V60.2422H286.391V51.9242C283.282 57.6376 278.073 61.0824 271.519 61.0824C260.177 61.0824 252.615 52.0923 252.615 38.5651C252.615 25.1219 260.177 16.2159 271.519 16.2159C278.073 16.2159 283.282 19.5766 286.391 25.29V6.10352e-05H292.692ZM259.168 38.5651C259.168 49.0676 264.209 55.201 272.779 55.201C281.433 55.201 286.391 49.0676 286.391 38.5651C286.391 28.1467 281.433 22.0972 272.779 22.0972C264.209 22.0972 259.168 28.1467 259.168 38.5651Z" fill="black"/>
<path d="M206.782 38.5657C206.782 24.8704 214.596 16.3845 226.863 16.3845C238.542 16.3845 246.944 25.3746 246.944 37.7255V40.3301H213.336C213.924 50.0764 218.713 55.2856 227.367 55.2856C234.425 55.2856 238.71 51.9248 239.718 46.6315H246.439C244.507 55.7897 238.205 60.9149 227.367 60.9149C214.764 60.9149 206.782 52.3449 206.782 38.5657ZM226.863 21.8457C218.965 21.8457 214.344 26.3828 213.504 35.2049H240.138C239.466 27.055 234.257 21.8457 226.863 21.8457Z" fill="black"/>
<path d="M200.268 6.10352e-05V60.2422H193.966V51.9242C190.857 57.6376 185.648 61.0824 179.095 61.0824C167.752 61.0824 160.19 52.0923 160.19 38.5651C160.19 25.1219 167.752 16.2159 179.095 16.2159C185.648 16.2159 190.857 19.5766 193.966 25.29V6.10352e-05H200.268ZM166.744 38.5651C166.744 49.0676 171.785 55.201 180.355 55.201C189.009 55.201 193.966 49.0676 193.966 38.5651C193.966 28.1467 189.009 22.0972 180.355 22.0972C171.785 22.0972 166.744 28.1467 166.744 38.5651Z" fill="black"/>
<path d="M114.189 38.565C114.189 25.1218 122.339 16.2158 134.437 16.2158C146.452 16.2158 154.518 25.1218 154.518 38.565C154.518 52.0922 146.452 61.0823 134.437 61.0823C122.339 61.0823 114.189 52.0922 114.189 38.565ZM147.965 38.565C147.965 28.1466 143.007 22.0971 134.437 22.0971C125.783 22.0971 120.742 28.1466 120.742 38.565C120.742 49.0675 125.783 55.2009 134.437 55.2009C143.007 55.2009 147.965 49.0675 147.965 38.565Z" fill="black"/>
<path d="M60.5398 32.0964C60.5398 14.8724 70.2021 3.44568 84.8215 3.44568C98.0126 3.44568 107.591 11.0915 108.515 23.0223H101.961C101.541 14.6203 94.9038 9.41108 84.9055 9.41108C73.6469 9.41108 67.0933 17.729 67.0933 32.0964C67.0933 46.5478 73.6469 54.8657 84.9055 54.8657C94.8198 54.8657 101.373 49.6565 101.961 41.2545H108.515C107.423 53.4374 97.9285 60.9151 84.8215 60.9151C70.2861 60.9151 60.5398 49.4044 60.5398 32.0964Z" fill="black"/>
</svg>
