<svg width="1122" height="635" viewBox="0 0 1122 635" fill="none" xmlns="http://www.w3.org/2000/svg">
<path d="M405.351 632.22L404.85 633.568H406.288H480.216H480.911L481.154 632.917L715.903 3.03788L716.406 1.68866H714.966H640.216H639.521L639.278 2.34051L405.351 632.22Z" stroke="white" stroke-width="2"/>
<path d="M774.17 568.946L772.497 570.647H774.883H877.581H878.003L878.297 570.344L1119.78 322.288L1120.46 321.587L1119.77 320.889L878.294 75.299L878 75.0001H877.581H774.883H772.492L774.171 76.7024L1013.72 319.535V325.291L774.17 568.946Z" stroke="white" stroke-width="2"/>
<path d="M346.361 84.9742L348.042 83.2716L345.65 83.2716L243.408 83.2716L242.987 83.2716L242.693 83.5727L2.28496 329.545L1.59838 330.247L2.28847 330.946L242.696 574.473L242.99 574.771L243.408 574.771L345.65 574.771L348.048 574.771L346.36 573.067L107.879 332.278L107.879 326.579L346.361 84.9742Z" stroke="white" stroke-width="2"/>
</svg>
