<svg width="1122" height="635" viewBox="0 0 1122 635" fill="none" xmlns="http://www.w3.org/2000/svg">
<path d="M477.516 486.128L477.247 486.851H478.019H517.663H518.036L518.166 486.502L644.053 148.724L644.322 148H643.55H603.465H603.092L602.962 148.35L477.516 486.128Z" stroke="white" stroke-width="2"/>
<path d="M675.299 452.197L674.402 453.109H675.681H730.754H730.98L731.138 452.947L860.635 319.924L861 319.549L860.63 319.174L731.136 187.474L730.979 187.314H730.754H675.681H674.399L675.299 188.227L803.76 318.448V321.535L675.299 452.197Z" stroke="white" stroke-width="2"/>
<path d="M445.882 192.663L446.784 191.75H445.501H390.673H390.447L390.289 191.911L261.368 323.816L261 324.193L261.37 324.567L390.291 455.161L390.449 455.321H390.673H445.501H446.787L445.882 454.407L317.994 325.282V322.226L445.882 192.663Z" stroke="white" stroke-width="2"/>
</svg>
