<svg width="200" height="23" viewBox="0 0 200 23" fill="none" xmlns="http://www.w3.org/2000/svg">
<path d="M166.881 12.2102C166.881 9.21016 165.261 7.95014 162.771 7.95014C160.341 7.95014 158.481 9.63016 158.481 12.0002V21.5104H156.201V6.15011H158.481V8.52015C159.621 6.78012 161.571 5.7901 163.431 5.7901C166.731 5.7901 169.131 7.89013 169.131 11.7302V21.5104H166.881V12.2102Z" fill="black"/>
<path d="M139.475 13.7702C139.475 8.97015 142.385 5.7901 146.705 5.7901C150.995 5.7901 153.875 8.97015 153.875 13.7702C153.875 18.6003 150.995 21.8104 146.705 21.8104C142.385 21.8104 139.475 18.6003 139.475 13.7702ZM151.535 13.7702C151.535 10.0502 149.765 7.89013 146.705 7.89013C143.615 7.89013 141.815 10.0502 141.815 13.7702C141.815 17.5203 143.615 19.7103 146.705 19.7103C149.765 19.7103 151.535 17.5203 151.535 13.7702Z" fill="black"/>
<path d="M132.169 14.9702L129.679 14.6402C126.529 14.2502 124.819 12.9602 124.819 10.3502C124.819 7.56013 127.099 5.8501 130.849 5.8501C134.419 5.8501 136.789 7.71013 137.089 10.7702H134.839C134.479 8.70014 133.219 7.74013 130.819 7.74013C128.569 7.74013 127.069 8.73015 127.069 10.2302C127.069 11.7002 128.059 12.3002 130.009 12.5402L132.529 12.8402C135.889 13.2302 137.479 14.7002 137.479 17.4603C137.479 20.1003 135.109 21.7804 131.539 21.7804C127.489 21.7804 125.029 19.8303 124.669 16.8903H127.039C127.399 18.9603 128.839 19.8903 131.539 19.8903C133.759 19.8903 135.229 18.9603 135.229 17.4903C135.229 16.0503 134.239 15.2103 132.169 14.9702Z" fill="black"/>
<path d="M122.313 11.3102V21.5104H120.033V18.7803C118.893 20.6403 116.913 21.8404 114.573 21.8404C111.603 21.8404 109.503 19.9503 109.503 17.2503C109.503 14.7602 111.123 13.2302 113.913 13.0502L118.233 12.7202C119.553 12.6602 120.033 12.2102 120.033 11.1902V11.1302C120.033 9.21015 118.353 7.74013 116.163 7.74013C113.613 7.74013 112.233 8.82015 111.993 11.0102H109.623C109.833 7.86013 112.383 5.8201 116.133 5.8201C119.703 5.8201 122.313 8.16014 122.313 11.3102ZM111.813 17.1903C111.813 18.8103 113.133 19.8603 115.233 19.8603C117.993 19.8603 120.033 17.7603 120.033 14.9402V14.4602L114.693 14.8202C112.773 14.9702 111.813 15.7503 111.813 17.1903Z" fill="black"/>
<path d="M98.3572 21.5104H96.2271L89.687 4.68011V21.5104H87.407V1.53006H90.677L97.3071 18.3303L103.787 1.53006H107.177V21.5104H104.927V4.68011L98.3572 21.5104Z" fill="black"/>
<path d="M70.7411 13.7702C70.7411 8.88015 73.5311 5.8501 77.9112 5.8501C82.0813 5.8501 85.0813 9.06015 85.0813 13.4702V14.4002H73.0811C73.2911 17.8803 75.0012 19.7403 78.0912 19.7403C80.6113 19.7403 82.1413 18.5403 82.5013 16.6503H84.9013C84.2113 19.9203 81.9613 21.7504 78.0912 21.7504C73.5911 21.7504 70.7411 18.6903 70.7411 13.7702ZM77.9112 7.80013C75.0912 7.80013 73.4411 9.42016 73.1411 12.5702H82.6513C82.4113 9.66016 80.5513 7.80013 77.9112 7.80013Z" fill="black"/>
<path d="M68.4155 3.05176e-05V21.5104H66.1654V18.5403C65.0554 20.5804 63.1954 21.8104 60.8553 21.8104C56.8053 21.8104 54.1052 18.6003 54.1052 13.7703C54.1052 8.97018 56.8053 5.79013 60.8553 5.79013C63.1954 5.79013 65.0554 6.99015 66.1654 9.03018V3.05176e-05H68.4155ZM56.4453 13.7703C56.4453 17.5203 58.2453 19.7104 61.3053 19.7104C64.3954 19.7104 66.1654 17.5203 66.1654 13.7703C66.1654 10.0502 64.3954 7.89016 61.3053 7.89016C58.2453 7.89016 56.4453 10.0502 56.4453 13.7703Z" fill="black"/>
<path d="M37.6793 13.7702C37.6793 8.97015 40.5894 5.7901 44.9094 5.7901C49.1995 5.7901 52.0796 8.97015 52.0796 13.7702C52.0796 18.6003 49.1995 21.8104 44.9094 21.8104C40.5894 21.8104 37.6793 18.6003 37.6793 13.7702ZM49.7395 13.7702C49.7395 10.0502 47.9695 7.89013 44.9094 7.89013C41.8194 7.89013 40.0194 10.0502 40.0194 13.7702C40.0194 17.5203 41.8194 19.7103 44.9094 19.7103C47.9695 19.7103 49.7395 17.5203 49.7395 13.7702Z" fill="black"/>
<path d="M18.5234 11.4602C18.5234 5.31011 21.9735 1.23004 27.1936 1.23004C31.9037 1.23004 35.3237 3.96009 35.6537 8.22016H33.3137C33.1637 5.22011 30.7936 3.36008 27.2236 3.36008C23.2035 3.36008 20.8635 6.33013 20.8635 11.4602C20.8635 16.6203 23.2035 19.5903 27.2236 19.5903C30.7636 19.5903 33.1037 17.7303 33.3137 14.7303H35.6537C35.2637 19.0803 31.8737 21.7504 27.1936 21.7504C22.0035 21.7504 18.5234 17.6403 18.5234 11.4602Z" fill="black"/>
<path d="M175.929 22.1L183.743 1.05957H186.24L178.398 22.1H175.929Z" fill="black"/>
<path d="M188.503 19.9979L196.514 11.8492V11.6295L188.503 3.50821H191.933L200 11.7119L191.933 19.9979H188.503Z" fill="black"/>
<path d="M11.6738 3.69242L3.53909 11.8903L3.53909 12.1113L11.6738 20.2815L8.19054 20.2815L3.60075e-05 12.0284L8.19054 3.69242L11.6738 3.69242Z" fill="black"/>
</svg>
